<svg xmlns="http://www.w3.org/2000/svg" viewBox="0 0 900.74 300.44"><defs><style>.cls-1{fill:#fff;}</style></defs><g id="Layer_2" data-name="Layer 2"><g id="Layer_1-2" data-name="Layer 1"><path class="cls-1" d="M0,190.3V131.36L172.4,58.27v62L62.78,160.32l1.91-3v7.08l-1.91-3L172.4,201.42v61.63Z"/><path class="cls-1" d="M295.41,266.42q-24.37,0-43-7.41t-30.11-21A63.63,63.63,0,0,1,207.94,206L268,198.89q2.7,10.44,9.72,16.17t19.75,5.72q9.4,0,14.66-3A9.58,9.58,0,0,0,317.4,209c0-3.36-1.62-6.09-4.86-8.16s-8.31-3.79-15.21-5.14l-31.55-5.89q-26.77-5.06-40.24-18.87t-13.46-35.87q0-19.36,9.88-33t28.12-20.8q18.24-7.16,43.74-7.16,24.06,0,41.83,6.74T364,100.12q10.59,12.54,12.82,30.23l-56.72,6.73q-1.75-8.93-8.6-13.47a28.47,28.47,0,0,0-16.1-4.55q-8.6,0-14.1,3.2t-5.5,8.76a10.82,10.82,0,0,0,3.51,7.75q3.51,3.54,13.07,5.39l36.17,6.57q27.07,5,40.39,17.34t13.3,33q0,19.88-11.15,34.52t-30.67,22.74Q320.9,266.43,295.41,266.42Z"/><path class="cls-1" d="M455.87,265.75q-17.06,0-30.12-5.9a44.87,44.87,0,0,1-20.39-17.93q-7.33-12-7.33-30.4,0-15.5,4.94-26.27a46.26,46.26,0,0,1,13.86-17.68A65.41,65.41,0,0,1,437.62,157a113.45,113.45,0,0,1,25.58-4.72,237.3,237.3,0,0,0,24-2.86q9-1.68,13.06-5a10.43,10.43,0,0,0,4.07-8.5v-.68a12.59,12.59,0,0,0-2.47-7.91,16.05,16.05,0,0,0-6.86-5,28.27,28.27,0,0,0-10.59-1.77,30.58,30.58,0,0,0-10.92,1.85,18.35,18.35,0,0,0-12,14.82l-57.84-4.71a63.68,63.68,0,0,1,12-30.06q9.81-13.23,27.33-20.8t42.7-7.58a120.75,120.75,0,0,1,34.42,4.55,77.6,77.6,0,0,1,26,12.88,57.43,57.43,0,0,1,16.33,19.62A54.45,54.45,0,0,1,568,135.91V262.72H507.65V236.44h-1.11a54.75,54.75,0,0,1-12.91,17,47.54,47.54,0,0,1-16.89,9.35A69.7,69.7,0,0,1,455.87,265.75Zm20.71-42.61A30.89,30.89,0,0,0,490.2,220a27.38,27.38,0,0,0,10.6-8.92,23.89,23.89,0,0,0,4.14-14.23V181.71q-2.55.84-5.34,1.85a63.06,63.06,0,0,1-6.05,1.86c-2.18.56-4.41,1.07-6.69,1.51s-4.76.9-7.41,1.35a35.75,35.75,0,0,0-12,3.87,18.77,18.77,0,0,0-7,6.57,16.79,16.79,0,0,0-2.31,8.76,14.93,14.93,0,0,0,2.39,8.59,14.57,14.57,0,0,0,6.53,5.3A24.15,24.15,0,0,0,476.58,223.14Z"/><path class="cls-1" d="M645,300.44,568.52,0h54.17l76.49,300.44Z"/><path class="cls-1" d="M900.74,190.3l-172.4,72.75V201.42l109.94-40.09-1.91,3v-7.08l1.91,3L728.34,120.24v-62l172.4,73.09Z"/></g></g></svg>